<?xml version="1.0" standalone="no"?>
<!DOCTYPE svg PUBLIC "-//W3C//DTD SVG 20010904//EN"
 "http://www.w3.org/TR/2001/REC-SVG-20010904/DTD/svg10.dtd">
<svg version="1.0" xmlns="http://www.w3.org/2000/svg"
 width="512.000000pt" height="512.000000pt" viewBox="0 0 512.000000 512.000000"
 preserveAspectRatio="xMidYMid meet">
<metadata>
Created by potrace 1.14, written by Peter Selinger 2001-2017
</metadata>
<g transform="translate(0.000000,512.000000) scale(0.100000,-0.100000)"
fill="#000000" stroke="none">
<path d="M2602 5088 c-34 -5 -85 -17 -113 -28 -59 -24 -148 -89 -182 -133 -22
-30 -136 -222 -195 -327 -33 -60 -45 -81 -62 -107 l-15 -23 -820 0 c-700 0
-829 -2 -879 -15 -153 -40 -280 -169 -322 -328 -21 -78 -19 -2967 1 -3044 42
-154 147 -265 302 -318 l68 -23 734 -1 c404 0 736 -3 738 -5 14 -13 3 -366
-12 -408 -2 -7 -6 -30 -8 -51 -3 -21 -7 -41 -11 -44 -3 -4 -138 -7 -299 -8
-220 0 -298 -4 -315 -14 -44 -24 -57 -92 -27 -143 26 -44 9 -44 1386 -42 1258
1 1307 1 1337 20 45 26 59 84 32 133 -23 44 -48 48 -357 47 -325 -1 -300 -7
-309 69 -3 22 -7 47 -9 55 -16 56 -26 372 -13 386 3 2 331 5 730 5 786 0 798
1 899 55 96 53 179 151 215 254 18 53 19 106 19 1605 l0 1550 -29 57 c-50 99
-135 171 -231 197 -27 7 -321 11 -911 11 l-872 0 13 45 c93 308 -165 613 -483
573z"/>
</g>
</svg>
